<svg width="130" height="19" viewBox="0 0 130 19" fill="none" xmlns="http://www.w3.org/2000/svg">
  <g filter="url(#filter0_b_674_204)">
    <path
      d="M0.517045 18V0.545454H7.40341C8.72159 0.545454 9.84659 0.78125 10.7784 1.25284C11.7159 1.71875 12.429 2.38068 12.9176 3.23864C13.4119 4.09091 13.6591 5.09375 13.6591 6.24716C13.6591 7.40625 13.4091 8.40341 12.9091 9.23864C12.4091 10.0682 11.6847 10.7045 10.7358 11.1477C9.79261 11.5909 8.65057 11.8125 7.30966 11.8125H2.69886V8.84659H6.71307C7.41761 8.84659 8.00284 8.75 8.46875 8.55682C8.93466 8.36364 9.28125 8.07386 9.50852 7.6875C9.74148 7.30114 9.85795 6.82102 9.85795 6.24716C9.85795 5.66761 9.74148 5.17898 9.50852 4.78125C9.28125 4.38352 8.93182 4.08239 8.46023 3.87784C7.99432 3.66761 7.40625 3.5625 6.69602 3.5625H4.20739V18H0.517045ZM9.94318 10.0568L14.2812 18H10.2074L5.96307 10.0568H9.94318ZM27.0483 0.545454H30.7386V11.8807C30.7386 13.1534 30.4347 14.267 29.8267 15.2216C29.2244 16.1761 28.3807 16.9205 27.2955 17.4545C26.2102 17.983 24.946 18.2472 23.5028 18.2472C22.054 18.2472 20.7869 17.983 19.7017 17.4545C18.6165 16.9205 17.7727 16.1761 17.1705 15.2216C16.5682 14.267 16.267 13.1534 16.267 11.8807V0.545454H19.9574V11.5653C19.9574 12.2301 20.1023 12.821 20.392 13.3381C20.6875 13.8551 21.1023 14.2614 21.6364 14.5568C22.1705 14.8523 22.7926 15 23.5028 15C24.2188 15 24.8409 14.8523 25.3693 14.5568C25.9034 14.2614 26.3153 13.8551 26.6051 13.3381C26.9006 12.821 27.0483 12.2301 27.0483 11.5653V0.545454ZM33.7749 18V0.545454H40.7635C42.0476 0.545454 43.1186 0.735795 43.9766 1.11648C44.8345 1.49716 45.4794 2.02557 45.9112 2.7017C46.343 3.37216 46.5589 4.14489 46.5589 5.01989C46.5589 5.7017 46.4226 6.30114 46.1499 6.81818C45.8771 7.32955 45.5021 7.75 45.0249 8.07955C44.5533 8.40341 44.0135 8.63352 43.4055 8.76989V8.94034C44.0703 8.96875 44.6925 9.15625 45.272 9.50284C45.8572 9.84943 46.3317 10.3352 46.6953 10.9602C47.0589 11.5795 47.2408 12.3182 47.2408 13.1761C47.2408 14.1023 47.0107 14.929 46.5504 15.6562C46.0959 16.3778 45.4226 16.9489 44.5305 17.3693C43.6385 17.7898 42.5391 18 41.2322 18H33.7749ZM37.4652 14.983H40.4737C41.5021 14.983 42.2521 14.7869 42.7237 14.3949C43.1953 13.9972 43.4311 13.4687 43.4311 12.8097C43.4311 12.3267 43.3146 11.9006 43.0817 11.5312C42.8487 11.1619 42.5163 10.8722 42.0845 10.6619C41.6584 10.4517 41.1499 10.3466 40.5589 10.3466H37.4652V14.983ZM37.4652 7.84943H40.201C40.7067 7.84943 41.1555 7.76136 41.5476 7.58523C41.9453 7.40341 42.2578 7.14773 42.4851 6.81818C42.718 6.48864 42.8345 6.09375 42.8345 5.63352C42.8345 5.00284 42.6101 4.49432 42.1612 4.10795C41.718 3.72159 41.0874 3.52841 40.2692 3.52841H37.4652V7.84943ZM48.6193 0.545454H52.7528L56.733 8.0625H56.9034L60.8835 0.545454H65.017L58.6506 11.8295V18H54.9858V11.8295L48.6193 0.545454Z"
      fill="#00B3B0" />
    <path
      d="M67.0327 18V0.545454H74.0213C75.3054 0.545454 76.3764 0.735795 77.2344 1.11648C78.0923 1.49716 78.7372 2.02557 79.169 2.7017C79.6009 3.37216 79.8168 4.14489 79.8168 5.01989C79.8168 5.7017 79.6804 6.30114 79.4077 6.81818C79.1349 7.32955 78.7599 7.75 78.2827 8.07955C77.8111 8.40341 77.2713 8.63352 76.6634 8.76989V8.94034C77.3281 8.96875 77.9503 9.15625 78.5298 9.50284C79.1151 9.84943 79.5895 10.3352 79.9531 10.9602C80.3168 11.5795 80.4986 12.3182 80.4986 13.1761C80.4986 14.1023 80.2685 14.929 79.8082 15.6562C79.3537 16.3778 78.6804 16.9489 77.7884 17.3693C76.8963 17.7898 75.7969 18 74.4901 18H67.0327ZM70.723 14.983H73.7315C74.7599 14.983 75.5099 14.7869 75.9815 14.3949C76.4531 13.9972 76.6889 13.4687 76.6889 12.8097C76.6889 12.3267 76.5724 11.9006 76.3395 11.5312C76.1065 11.1619 75.7741 10.8722 75.3423 10.6619C74.9162 10.4517 74.4077 10.3466 73.8168 10.3466H70.723V14.983ZM70.723 7.84943H73.4588C73.9645 7.84943 74.4134 7.76136 74.8054 7.58523C75.2031 7.40341 75.5156 7.14773 75.7429 6.81818C75.9759 6.48864 76.0923 6.09375 76.0923 5.63352C76.0923 5.00284 75.8679 4.49432 75.419 4.10795C74.9759 3.72159 74.3452 3.52841 73.527 3.52841H70.723V7.84943ZM82.8999 18V0.545454H86.5902V14.9574H94.0732V18H82.8999ZM111.877 9.27273C111.877 11.1761 111.516 12.7955 110.795 14.1307C110.079 15.4659 109.102 16.4858 107.863 17.1903C106.63 17.8892 105.244 18.2386 103.704 18.2386C102.153 18.2386 100.761 17.8864 99.5277 17.1818C98.2947 16.4773 97.3203 15.4574 96.6044 14.1222C95.8885 12.7869 95.5305 11.1705 95.5305 9.27273C95.5305 7.36932 95.8885 5.75 96.6044 4.41477C97.3203 3.07955 98.2947 2.0625 99.5277 1.36364C100.761 0.659091 102.153 0.306818 103.704 0.306818C105.244 0.306818 106.63 0.659091 107.863 1.36364C109.102 2.0625 110.079 3.07955 110.795 4.41477C111.516 5.75 111.877 7.36932 111.877 9.27273ZM108.136 9.27273C108.136 8.03977 107.951 7 107.582 6.15341C107.218 5.30682 106.704 4.66477 106.039 4.22727C105.374 3.78977 104.596 3.57102 103.704 3.57102C102.812 3.57102 102.033 3.78977 101.369 4.22727C100.704 4.66477 100.187 5.30682 99.8175 6.15341C99.4538 7 99.272 8.03977 99.272 9.27273C99.272 10.5057 99.4538 11.5455 99.8175 12.392C100.187 13.2386 100.704 13.8807 101.369 14.3182C102.033 14.7557 102.812 14.9744 103.704 14.9744C104.596 14.9744 105.374 14.7557 106.039 14.3182C106.704 13.8807 107.218 13.2386 107.582 12.392C107.951 11.5455 108.136 10.5057 108.136 9.27273ZM114.611 18V0.545454H118.301V8.24148H118.531L124.812 0.545454H129.236L122.759 8.3608L129.312 18H124.898L120.116 10.8239L118.301 13.0398V18H114.611Z"
      fill="currentColor" fill-opacity="0.88" />
  </g>
  <defs>
    <filter id="filter0_b_674_204" x="-11.4829" y="-11.6932" width="152.795" height="41.9404"
      filterUnits="userSpaceOnUse" color-interpolation-filters="sRGB">
      <feFlood flood-opacity="0" result="BackgroundImageFix" />
      <feGaussianBlur in="BackgroundImageFix" stdDeviation="6" />
      <feComposite in2="SourceAlpha" operator="in" result="effect1_backgroundBlur_674_204" />
      <feBlend mode="normal" in="SourceGraphic" in2="effect1_backgroundBlur_674_204" result="shape" />
    </filter>
  </defs>
</svg>