<svg width="120" height="33" viewBox="0 0 120 33" fill="none" xmlns="http://www.w3.org/2000/svg">
  <g filter="url(#filter0_b_674_205)">
    <path
      d="M1.39062 22V6H7.70313C8.91146 6 9.94271 6.21615 10.7969 6.64844C11.6563 7.07552 12.3099 7.68229 12.7578 8.46875C13.2109 9.25 13.4375 10.1693 13.4375 11.2266C13.4375 12.2891 13.2083 13.2031 12.75 13.9687C12.2917 14.7292 11.6276 15.3125 10.7578 15.7187C9.89323 16.125 8.84635 16.3281 7.61719 16.3281H3.39063V13.6094H7.07031C7.71615 13.6094 8.2526 13.5208 8.67969 13.3438C9.10677 13.1667 9.42448 12.901 9.63281 12.5469C9.84635 12.1927 9.95313 11.7526 9.95313 11.2266C9.95313 10.6953 9.84635 10.2474 9.63281 9.88281C9.42448 9.51823 9.10417 9.24219 8.67188 9.05469C8.24479 8.86198 7.70573 8.76562 7.05469 8.76562H4.77344V22H1.39062ZM10.0313 14.7188L14.0078 22H10.2734L6.38281 14.7188H10.0313ZM25.7109 6H29.0938V16.3906C29.0938 17.5573 28.8151 18.5781 28.2578 19.4531C27.7057 20.3281 26.9323 21.0104 25.9375 21.5C24.9427 21.9844 23.7839 22.2266 22.4609 22.2266C21.1328 22.2266 19.9714 21.9844 18.9766 21.5C17.9818 21.0104 17.2083 20.3281 16.6563 19.4531C16.1042 18.5781 15.8281 17.5573 15.8281 16.3906V6H19.2109V16.1016C19.2109 16.7109 19.3438 17.2526 19.6094 17.7266C19.8802 18.2005 20.2604 18.5729 20.75 18.8438C21.2396 19.1146 21.8099 19.25 22.4609 19.25C23.1172 19.25 23.6875 19.1146 24.1719 18.8438C24.6615 18.5729 25.0391 18.2005 25.3047 17.7266C25.5755 17.2526 25.7109 16.7109 25.7109 16.1016V6ZM31.877 22V6H38.2832C39.4603 6 40.4421 6.17448 41.2285 6.52344C42.015 6.8724 42.6061 7.35677 43.002 7.97656C43.3978 8.59115 43.5957 9.29948 43.5957 10.1016C43.5957 10.7266 43.4707 11.276 43.2207 11.75C42.9707 12.2187 42.627 12.6042 42.1895 12.9062C41.7572 13.2031 41.2624 13.4141 40.7051 13.5391V13.6953C41.3145 13.7214 41.8848 13.8932 42.416 14.2109C42.9525 14.5286 43.3874 14.974 43.7207 15.5469C44.054 16.1146 44.2207 16.7917 44.2207 17.5781C44.2207 18.4271 44.0098 19.1849 43.5879 19.8516C43.1712 20.513 42.554 21.0365 41.7363 21.4219C40.9186 21.8073 39.9108 22 38.7129 22H31.877ZM35.2598 19.2344H38.0176C38.9603 19.2344 39.6478 19.0547 40.0801 18.6953C40.5124 18.3307 40.7285 17.8464 40.7285 17.2422C40.7285 16.7995 40.6217 16.4089 40.4082 16.0703C40.1947 15.7318 39.89 15.4661 39.4941 15.2734C39.1035 15.0807 38.6374 14.9844 38.0957 14.9844H35.2598V19.2344ZM35.2598 12.6953H37.7676C38.2311 12.6953 38.6426 12.6146 39.002 12.4531C39.3665 12.2865 39.653 12.0521 39.8613 11.75C40.0749 11.4479 40.1816 11.0859 40.1816 10.6641C40.1816 10.0859 39.9759 9.61979 39.5645 9.26562C39.1582 8.91146 38.5801 8.73437 37.8301 8.73437H35.2598V12.6953ZM45.4844 6H49.2734L52.9219 12.8906H53.0781L56.7266 6H60.5156L54.6797 16.3437V22H51.3203V16.3437L45.4844 6Z"
      fill="#00B3B0" />
    <path
      d="M62.3633 22V6H68.7695C69.9466 6 70.9284 6.17448 71.7148 6.52344C72.5013 6.8724 73.0924 7.35677 73.4883 7.97656C73.8841 8.59115 74.082 9.29948 74.082 10.1016C74.082 10.7266 73.957 11.276 73.707 11.75C73.457 12.2187 73.1133 12.6042 72.6758 12.9062C72.2435 13.2031 71.7487 13.4141 71.1914 13.5391V13.6953C71.8008 13.7214 72.3711 13.8932 72.9023 14.2109C73.4388 14.5286 73.8737 14.974 74.207 15.5469C74.5404 16.1146 74.707 16.7917 74.707 17.5781C74.707 18.4271 74.4961 19.1849 74.0742 19.8516C73.6576 20.513 73.0404 21.0365 72.2227 21.4219C71.4049 21.8073 70.3971 22 69.1992 22H62.3633ZM65.7461 19.2344H68.5039C69.4466 19.2344 70.1341 19.0547 70.5664 18.6953C70.9987 18.3307 71.2148 17.8464 71.2148 17.2422C71.2148 16.7995 71.1081 16.4089 70.8945 16.0703C70.681 15.7318 70.3763 15.4661 69.9805 15.2734C69.5898 15.0807 69.1237 14.9844 68.582 14.9844H65.7461V19.2344ZM65.7461 12.6953H68.2539C68.7174 12.6953 69.1289 12.6146 69.4883 12.4531C69.8529 12.2865 70.1393 12.0521 70.3477 11.75C70.5612 11.4479 70.668 11.0859 70.668 10.6641C70.668 10.0859 70.4622 9.61979 70.0508 9.26562C69.6445 8.91146 69.0664 8.73437 68.3164 8.73437H65.7461V12.6953ZM76.9082 22V6H80.291V19.2109H87.1504V22H76.9082ZM103.471 14C103.471 15.7448 103.14 17.2292 102.479 18.4531C101.822 19.6771 100.926 20.612 99.791 21.2578C98.6608 21.8984 97.39 22.2187 95.9785 22.2187C94.5566 22.2187 93.2806 21.8958 92.1504 21.25C91.0202 20.6042 90.127 19.6693 89.4707 18.4453C88.8145 17.2214 88.4863 15.7396 88.4863 14C88.4863 12.2552 88.8145 10.7708 89.4707 9.54688C90.127 8.32292 91.0202 7.39062 92.1504 6.75C93.2806 6.10417 94.5566 5.78125 95.9785 5.78125C97.39 5.78125 98.6608 6.10417 99.791 6.75C100.926 7.39062 101.822 8.32292 102.479 9.54688C103.14 10.7708 103.471 12.2552 103.471 14ZM100.041 14C100.041 12.8698 99.8717 11.9167 99.5332 11.1406C99.1999 10.3646 98.7285 9.77604 98.1191 9.375C97.5098 8.97396 96.7962 8.77344 95.9785 8.77344C95.1608 8.77344 94.4473 8.97396 93.8379 9.375C93.2285 9.77604 92.7546 10.3646 92.416 11.1406C92.0827 11.9167 91.916 12.8698 91.916 14C91.916 15.1302 92.0827 16.0833 92.416 16.8594C92.7546 17.6354 93.2285 18.224 93.8379 18.625C94.4473 19.026 95.1608 19.2266 95.9785 19.2266C96.7962 19.2266 97.5098 19.026 98.1191 18.625C98.7285 18.224 99.1999 17.6354 99.5332 16.8594C99.8717 16.0833 100.041 15.1302 100.041 14ZM105.977 22V6H109.359V13.0547H109.57L115.328 6H119.383L113.445 13.1641L119.453 22H115.406L111.023 15.4219L109.359 17.4531V22H105.977Z"
      fill="currentColor" fill-opacity="0.88" />
  </g>
  <g filter="url(#filter1_b_674_205)">
    <path
      d="M1.57386 31V25.1818H3.80114C4.22159 25.1818 4.57102 25.2481 4.84943 25.3807C5.12973 25.5114 5.33902 25.6903 5.47727 25.9176C5.61742 26.1449 5.6875 26.4025 5.6875 26.6903C5.6875 26.9271 5.64205 27.1297 5.55114 27.2983C5.46023 27.465 5.33807 27.6004 5.18466 27.7045C5.03125 27.8087 4.85985 27.8835 4.67045 27.929V27.9858C4.87689 27.9972 5.07481 28.0606 5.2642 28.1761C5.45549 28.2898 5.61174 28.4508 5.73295 28.6591C5.85417 28.8674 5.91477 29.1193 5.91477 29.4148C5.91477 29.7159 5.84186 29.9867 5.69602 30.2273C5.55019 30.4659 5.33049 30.6544 5.03693 30.7926C4.74337 30.9309 4.37405 31 3.92898 31H1.57386ZM2.62784 30.1193H3.76136C4.14394 30.1193 4.41951 30.0464 4.58807 29.9006C4.75852 29.7528 4.84375 29.5634 4.84375 29.3324C4.84375 29.16 4.80114 29.0047 4.71591 28.8665C4.63068 28.7263 4.50947 28.6165 4.35227 28.5369C4.19508 28.4555 4.00758 28.4148 3.78977 28.4148H2.62784V30.1193ZM2.62784 27.6562H3.67045C3.85227 27.6562 4.0161 27.6231 4.16193 27.5568C4.30777 27.4886 4.42235 27.393 4.50568 27.2699C4.59091 27.1449 4.63352 26.9972 4.63352 26.8267C4.63352 26.6013 4.55398 26.4157 4.39489 26.2699C4.23769 26.1241 4.00379 26.0511 3.69318 26.0511H2.62784V27.6562ZM7.23395 25.1818H8.42429L9.84759 27.7557H9.9044L11.3277 25.1818H12.518L10.4016 28.8295V31H9.35043V28.8295L7.23395 25.1818ZM19.1585 25.1818V31H18.1045V26.2074H18.0705L16.7097 27.0767V26.1108L18.1557 25.1818H19.1585ZM23.5864 31.1108C23.1186 31.1108 22.717 30.9924 22.3818 30.7557C22.0485 30.517 21.7919 30.1733 21.6119 29.7244C21.4339 29.2737 21.3449 28.7311 21.3449 28.0966C21.3468 27.4621 21.4367 26.9223 21.6148 26.4773C21.7947 26.0303 22.0513 25.6894 22.3847 25.4545C22.7199 25.2197 23.1205 25.1023 23.5864 25.1023C24.0523 25.1023 24.4528 25.2197 24.7881 25.4545C25.1233 25.6894 25.3799 26.0303 25.558 26.4773C25.7379 26.9242 25.8278 27.464 25.8278 28.0966C25.8278 28.733 25.7379 29.2765 25.558 29.7273C25.3799 30.1761 25.1233 30.5189 24.7881 30.7557C24.4547 30.9924 24.0542 31.1108 23.5864 31.1108ZM23.5864 30.2216C23.95 30.2216 24.2369 30.0426 24.4472 29.6847C24.6593 29.3248 24.7653 28.7955 24.7653 28.0966C24.7653 27.6345 24.717 27.2462 24.6205 26.9318C24.5239 26.6174 24.3875 26.3807 24.2114 26.2216C24.0352 26.0606 23.8269 25.9801 23.5864 25.9801C23.2246 25.9801 22.9386 26.16 22.7284 26.5199C22.5182 26.8778 22.4121 27.4034 22.4102 28.0966C22.4083 28.5606 22.4547 28.9508 22.5494 29.267C22.646 29.5833 22.7824 29.822 22.9585 29.983C23.1347 30.142 23.3439 30.2216 23.5864 30.2216ZM29.7223 31.1108C29.2545 31.1108 28.853 30.9924 28.5178 30.7557C28.1844 30.517 27.9278 30.1733 27.7479 29.7244C27.5698 29.2737 27.4808 28.7311 27.4808 28.0966C27.4827 27.4621 27.5727 26.9223 27.7507 26.4773C27.9306 26.0303 28.1873 25.6894 28.5206 25.4545C28.8558 25.2197 29.2564 25.1023 29.7223 25.1023C30.1882 25.1023 30.5888 25.2197 30.924 25.4545C31.2592 25.6894 31.5159 26.0303 31.6939 26.4773C31.8738 26.9242 31.9638 27.464 31.9638 28.0966C31.9638 28.733 31.8738 29.2765 31.6939 29.7273C31.5159 30.1761 31.2592 30.5189 30.924 30.7557C30.5907 30.9924 30.1901 31.1108 29.7223 31.1108ZM29.7223 30.2216C30.0859 30.2216 30.3729 30.0426 30.5831 29.6847C30.7952 29.3248 30.9013 28.7955 30.9013 28.0966C30.9013 27.6345 30.853 27.2462 30.7564 26.9318C30.6598 26.6174 30.5234 26.3807 30.3473 26.2216C30.1712 26.0606 29.9628 25.9801 29.7223 25.9801C29.3606 25.9801 29.0746 26.16 28.8643 26.5199C28.6541 26.8778 28.5481 27.4034 28.5462 28.0966C28.5443 28.5606 28.5907 28.9508 28.6854 29.267C28.782 29.5833 28.9183 29.822 29.0945 29.983C29.2706 30.142 29.4799 30.2216 29.7223 30.2216ZM36.9264 26.7812C36.8999 26.5331 36.7882 26.34 36.5912 26.2017C36.3961 26.0634 36.1423 25.9943 35.8298 25.9943C35.6101 25.9943 35.4217 26.0275 35.2645 26.0938C35.1073 26.16 34.987 26.25 34.9037 26.3636C34.8204 26.4773 34.7777 26.607 34.7759 26.7528C34.7759 26.8741 34.8033 26.9792 34.8582 27.0682C34.9151 27.1572 34.9918 27.233 35.0884 27.2955C35.1849 27.3561 35.292 27.4072 35.4094 27.4489C35.5268 27.4905 35.6452 27.5256 35.7645 27.554L36.3099 27.6903C36.5296 27.7415 36.7408 27.8106 36.9435 27.8977C37.148 27.9848 37.3308 28.0947 37.4918 28.2273C37.6546 28.3598 37.7834 28.5199 37.8781 28.7074C37.9728 28.8949 38.0202 29.1146 38.0202 29.3665C38.0202 29.7074 37.933 30.0076 37.7588 30.267C37.5846 30.5246 37.3327 30.7263 37.0031 30.8722C36.6755 31.0161 36.2787 31.0881 35.8128 31.0881C35.3601 31.0881 34.9671 31.018 34.6338 30.8778C34.3024 30.7377 34.0429 30.5331 33.8554 30.2642C33.6698 29.9953 33.5694 29.6676 33.5543 29.2812H34.5912C34.6063 29.4839 34.6688 29.6525 34.7787 29.7869C34.8885 29.9214 35.0315 30.0218 35.2077 30.0881C35.3857 30.1544 35.5846 30.1875 35.8043 30.1875C36.0334 30.1875 36.2342 30.1534 36.4065 30.0852C36.5808 30.0152 36.7171 29.9186 36.8156 29.7955C36.9141 29.6705 36.9643 29.5246 36.9662 29.358C36.9643 29.2064 36.9198 29.0814 36.8327 28.983C36.7455 28.8826 36.6234 28.7992 36.4662 28.733C36.3109 28.6648 36.1291 28.6042 35.9207 28.5511L35.2588 28.3807C34.7796 28.2576 34.4009 28.071 34.1224 27.821C33.8459 27.5691 33.7077 27.2348 33.7077 26.8182C33.7077 26.4754 33.8005 26.1752 33.9861 25.9176C34.1736 25.66 34.4283 25.4602 34.7503 25.3182C35.0723 25.1742 35.4368 25.1023 35.844 25.1023C36.2569 25.1023 36.6187 25.1742 36.9293 25.3182C37.2418 25.4602 37.487 25.6581 37.6651 25.9119C37.8431 26.1638 37.9349 26.4536 37.9406 26.7812H36.9264ZM39.5041 26.0653V25.1818H44.1462V26.0653H42.3479V31H41.3024V26.0653H39.5041ZM45.8851 31H44.7601L46.8084 25.1818H48.1095L50.1607 31H49.0357L47.4817 26.375H47.4362L45.8851 31ZM45.922 28.7188H48.9902V29.5653H45.922V28.7188ZM51.727 31V25.1818H53.9088C54.3558 25.1818 54.7308 25.2595 55.0338 25.4148C55.3387 25.5701 55.5688 25.7879 55.7241 26.0682C55.8813 26.3466 55.9599 26.6714 55.9599 27.0426C55.9599 27.4157 55.8804 27.7396 55.7213 28.0142C55.5641 28.2869 55.3321 28.4981 55.0253 28.6477C54.7185 28.7955 54.3416 28.8693 53.8946 28.8693H52.3406V27.9943H53.7526C54.0139 27.9943 54.2279 27.9583 54.3946 27.8864C54.5613 27.8125 54.6844 27.7055 54.7639 27.5653C54.8454 27.4233 54.8861 27.2491 54.8861 27.0426C54.8861 26.8362 54.8454 26.66 54.7639 26.5142C54.6825 26.3665 54.5584 26.2547 54.3918 26.179C54.2251 26.1013 54.0101 26.0625 53.7469 26.0625H52.781V31H51.727ZM54.7327 28.3636L56.173 31H54.9969L53.5821 28.3636H54.7327ZM57.7301 31V25.1818H58.7841V30.1165H61.3466V31H57.7301ZM64.1153 25.1818V31H63.0614V25.1818H64.1153ZM70.8379 25.1818V31H69.9004L67.1589 27.0369H67.1107V31H66.0567V25.1818H66.9999L69.7385 29.1477H69.7896V25.1818H70.8379ZM76.6841 27.0398C76.6367 26.8864 76.5714 26.7491 76.4881 26.6278C76.4066 26.5047 76.3081 26.3996 76.1926 26.3125C76.079 26.2254 75.9483 26.16 75.8006 26.1165C75.6528 26.071 75.4919 26.0483 75.3176 26.0483C75.0051 26.0483 74.7267 26.1269 74.4824 26.2841C74.2381 26.4413 74.0458 26.6723 73.9057 26.9773C73.7674 27.2803 73.6983 27.6496 73.6983 28.0852C73.6983 28.5246 73.7674 28.8968 73.9057 29.2017C74.0439 29.5066 74.2362 29.7386 74.4824 29.8977C74.7286 30.0549 75.0146 30.1335 75.3403 30.1335C75.6358 30.1335 75.8915 30.0767 76.1074 29.9631C76.3252 29.8494 76.4928 29.6884 76.6102 29.4801C76.7277 29.2699 76.7864 29.0237 76.7864 28.7415L77.025 28.7784H75.4455V27.9545H77.8063V28.6534C77.8063 29.1515 77.7002 29.5824 77.4881 29.946C77.2759 30.3097 76.9843 30.59 76.6131 30.7869C76.2419 30.982 75.8157 31.0795 75.3347 31.0795C74.7987 31.0795 74.328 30.9593 73.9227 30.7188C73.5193 30.4763 73.204 30.1326 72.9767 29.6875C72.7513 29.2405 72.6386 28.7102 72.6386 28.0966C72.6386 27.6269 72.7049 27.2074 72.8375 26.8381C72.972 26.4688 73.1595 26.1553 73.4 25.8977C73.6405 25.6383 73.9227 25.4413 74.2466 25.3068C74.5705 25.1705 74.9227 25.1023 75.3034 25.1023C75.6254 25.1023 75.9256 25.1496 76.204 25.2443C76.4824 25.3371 76.7295 25.4697 76.9455 25.642C77.1633 25.8144 77.3422 26.0189 77.4824 26.2557C77.6225 26.4924 77.7144 26.7538 77.758 27.0398H76.6841ZM82.7874 26.7812C82.7608 26.5331 82.6491 26.34 82.4521 26.2017C82.2571 26.0634 82.0033 25.9943 81.6908 25.9943C81.4711 25.9943 81.2826 26.0275 81.1254 26.0938C80.9682 26.16 80.848 26.25 80.7646 26.3636C80.6813 26.4773 80.6387 26.607 80.6368 26.7528C80.6368 26.8741 80.6642 26.9792 80.7192 27.0682C80.776 27.1572 80.8527 27.233 80.9493 27.2955C81.0459 27.3561 81.1529 27.4072 81.2703 27.4489C81.3877 27.4905 81.5061 27.5256 81.6254 27.554L82.1709 27.6903C82.3906 27.7415 82.6017 27.8106 82.8044 27.8977C83.0089 27.9848 83.1917 28.0947 83.3527 28.2273C83.5156 28.3598 83.6444 28.5199 83.7391 28.7074C83.8338 28.8949 83.8811 29.1146 83.8811 29.3665C83.8811 29.7074 83.794 30.0076 83.6197 30.267C83.4455 30.5246 83.1936 30.7263 82.8641 30.8722C82.5364 31.0161 82.1396 31.0881 81.6737 31.0881C81.2211 31.0881 80.8281 31.018 80.4947 30.8778C80.1633 30.7377 79.9038 30.5331 79.7163 30.2642C79.5307 29.9953 79.4303 29.6676 79.4152 29.2812H80.4521C80.4673 29.4839 80.5298 29.6525 80.6396 29.7869C80.7495 29.9214 80.8925 30.0218 81.0686 30.0881C81.2466 30.1544 81.4455 30.1875 81.6652 30.1875C81.8944 30.1875 82.0951 30.1534 82.2675 30.0852C82.4417 30.0152 82.5781 29.9186 82.6766 29.7955C82.775 29.6705 82.8252 29.5246 82.8271 29.358C82.8252 29.2064 82.7807 29.0814 82.6936 28.983C82.6065 28.8826 82.4843 28.7992 82.3271 28.733C82.1718 28.6648 81.99 28.6042 81.7817 28.5511L81.1197 28.3807C80.6406 28.2576 80.2618 28.071 79.9834 27.821C79.7069 27.5691 79.5686 27.2348 79.5686 26.8182C79.5686 26.4754 79.6614 26.1752 79.847 25.9176C80.0345 25.66 80.2892 25.4602 80.6112 25.3182C80.9332 25.1742 81.2978 25.1023 81.705 25.1023C82.1178 25.1023 82.4796 25.1742 82.7902 25.3182C83.1027 25.4602 83.348 25.6581 83.526 25.9119C83.704 26.1638 83.7959 26.4536 83.8016 26.7812H82.7874Z"
      fill="white" fill-opacity="0.88" />
  </g>
  <defs>
    <filter id="filter0_b_674_205" x="-10.6094" y="-6.21875" width="142.062" height="40.4453"
      filterUnits="userSpaceOnUse" color-interpolation-filters="sRGB">
      <feFlood flood-opacity="0" result="BackgroundImageFix" />
      <feGaussianBlur in="BackgroundImageFix" stdDeviation="6" />
      <feComposite in2="SourceAlpha" operator="in" result="effect1_backgroundBlur_674_205" />
      <feBlend mode="normal" in="SourceGraphic" in2="effect1_backgroundBlur_674_205" result="shape" />
    </filter>
    <filter id="filter1_b_674_205" x="-10.4261" y="13.1023" width="106.307" height="30.0085"
      filterUnits="userSpaceOnUse" color-interpolation-filters="sRGB">
      <feFlood flood-opacity="0" result="BackgroundImageFix" />
      <feGaussianBlur in="BackgroundImageFix" stdDeviation="6" />
      <feComposite in2="SourceAlpha" operator="in" result="effect1_backgroundBlur_674_205" />
      <feBlend mode="normal" in="SourceGraphic" in2="effect1_backgroundBlur_674_205" result="shape" />
    </filter>
  </defs>
</svg>