<?xml version="1.0" standalone="no"?>
<!DOCTYPE svg PUBLIC "-//W3C//DTD SVG 20010904//EN"
 "http://www.w3.org/TR/2001/REC-SVG-20010904/DTD/svg10.dtd">
<svg version="1.0" xmlns="http://www.w3.org/2000/svg"
 width="700.000000pt" height="700.000000pt" viewBox="0 0 700.000000 700.000000"
 preserveAspectRatio="xMidYMid meet">
<metadata>
Created by potrace 1.14, written by Peter Selinger 2001-2017
</metadata>
<g transform="translate(0.000000,700.000000) scale(0.100000,-0.100000)"
fill="#000000" stroke="none">
<path d="M800 6993 c-353 -59 -640 -298 -750 -624 -52 -154 -50 -25 -49 -2874
0 -1457 4 -2672 9 -2700 15 -88 18 -99 40 -165 43 -130 140 -280 240 -373 131
-122 260 -190 465 -244 17 -4 1241 -9 2720 -10 2649 -2 2691 -1 2784 18 376
79 658 371 725 749 15 88 17 303 14 2770 -2 1471 -7 2686 -11 2700 -4 14 -10
36 -13 49 -12 58 -48 151 -86 221 -132 242 -358 411 -638 476 -35 8 -5402 15
-5450 7z"/>
</g>
</svg>
